<?xml version="1.0" encoding="UTF-8"?>
<svg id="Layer_1" data-name="Layer 1" xmlns="http://www.w3.org/2000/svg" viewBox="0 0 894.5 313.04">
  <defs>
    <style>
      .cls-1 {
        fill: #ff2b46;
      }

      .cls-2 {
        fill: #001d49;
      }
    </style>
  </defs>
  <g>
    <path class="cls-2" d="M356.07,105.18h15.55c.46,7.83,5.3,14.05,17.4,14.05,10.25,0,15.9-4.38,15.9-11.64,0-6.57-4.49-9.45-12.56-11.06l-11.06-2.19c-13.13-2.53-23.04-8.64-23.04-22.24,0-14.86,11.87-23.04,30.3-23.04s30.19,8.41,30.19,23.96h-15.55c0-7.37-5.76-11.29-14.98-11.29-10.25,0-14.06,4.84-14.06,10.37,0,4.49,2.77,8.41,10.83,10.14l10.37,2.07c17.97,3.57,25.58,10.6,25.58,23.16,0,16.59-13.59,24.42-32.03,24.42-20.62,0-32.83-9.91-32.83-26.73Z"/>
    <path class="cls-2" d="M433.96,100.22v-50.11h15.21v48.96c0,12.9,6.45,19.59,17.4,19.59s17.28-6.68,17.28-19.59v-48.96h15.32v50.11c0,21.08-13.25,31.68-32.6,31.68s-32.6-10.6-32.6-31.68Z"/>
    <path class="cls-2" d="M513.93,50.11h31.68c20.74,0,30.19,10.71,30.19,26.38s-9.45,26.27-30.19,26.27h-16.59v28h-15.09V50.11ZM560.24,76.49c0-8.18-4.84-13.14-15.21-13.14h-16.01v26.15h16.01c10.37,0,15.21-4.96,15.21-13.02Z"/>
    <path class="cls-2" d="M587.56,50.11h31.68c20.74,0,30.19,10.71,30.19,26.38,0,11.64-5.3,20.62-16.82,24.31l17.51,29.96h-15.09l-16.01-28h-16.36v28h-15.09V50.11ZM633.87,76.49c0-8.18-4.84-13.14-15.21-13.14h-16.01v26.15h16.01c10.37,0,15.21-4.96,15.21-13.02Z"/>
    <path class="cls-2" d="M661.99,50.11h54.03v13.25h-38.94v20.51h35.49v11.86h-35.49v21.78h40.09v13.25h-55.19V50.11Z"/>
    <path class="cls-2" d="M728.94,50.11h18.89l23.5,60.25,23.5-60.25h18.89v80.65h-15.09v-54.15h-.58l-20.97,54.15h-11.52l-21.08-54.15h-.46v54.15h-15.09V50.11Z"/>
    <path class="cls-2" d="M828.96,50.11h54.03v13.25h-38.94v20.51h35.49v11.86h-35.49v21.78h40.09v13.25h-55.19V50.11Z"/>
  </g>
  <g>
    <path class="cls-2" d="M356.66,152.75h15.09v67.4h38.25v13.25h-53.34v-80.65Z"/>
    <path class="cls-2" d="M421.77,152.75h54.03v13.25h-38.94v20.51h35.48v11.86h-35.48v21.78h40.09v13.25h-55.19v-80.65Z"/>
    <path class="cls-2" d="M488.71,152.75h15.9l35.25,56.57h.35v-56.57h15.21v80.65h-16.59l-34.68-55.65h-.35v55.65h-15.09v-80.65Z"/>
    <path class="cls-2" d="M570.64,152.75h29.26c25.23,0,38.14,14.52,38.14,40.32s-12.9,40.32-38.14,40.32h-29.26v-80.65ZM622.59,193.08c0-18.78-6.57-27.08-24.19-27.08h-12.67v54.15h12.67c17.63,0,24.19-8.29,24.19-27.07Z"/>
    <path class="cls-2" d="M651.07,152.75h15.09v80.65h-15.09v-80.65Z"/>
    <path class="cls-2" d="M681.37,152.75h15.9l35.25,56.57h.35v-56.57h15.21v80.65h-16.59l-34.68-55.65h-.35v55.65h-15.09v-80.65Z"/>
    <path class="cls-2" d="M760.99,193.42c0-26.84,14.75-41.71,37.1-41.71,16.47,0,30.53,8.06,33.18,25.23h-15.09c-2.53-9.22-10.37-12.1-18.09-12.1-15.21,0-21.89,11.41-21.89,28.11s6.91,28.46,22.12,28.46c10.14,0,19.7-5.19,19.7-19.35h-16.82v-12.21h31.91v7.6c0,24.42-13.02,37.1-34.79,37.1-23.73,0-37.33-15.21-37.33-41.13Z"/>
  </g>
  <path class="cls-1" d="M159.26,6.47C76.4,6.47,9.23,73.64,9.23,156.49s67.17,150.02,150.02,150.02,150.02-67.17,150.02-150.02S242.11,6.47,159.26,6.47ZM248.74,233.01H69.78v-18.61h157.08v-43.51h-123.59v-20.1h145.46v82.22ZM91.67,139.2v43.29h123.59v20.32H69.78v-63.7h-26.67l116.16-90.21,116.15,90.21-183.74.09Z"/>
</svg>